<?xml version="1.0" standalone="no"?>
<svg version="1.1" xmlns="http://www.w3.org/2000/svg"
 width="1338" height="940" viewBox="0 0 13380 9400"
 preserveAspectRatio="xMidYMid meet">
<!-- Green "4" shape (#7CC242) -->
<g transform="translate(0,9400) scale(1,-1)" fill="#7CC242" stroke="none">
<path d="M4574 9313 c-140 -181 -320 -410 -369 -469 -27 -34 -131 -163 -230
-289 -99 -125 -242 -304 -318 -399 -172 -214 -202 -252 -279 -351 -118 -150
-499 -630 -577 -725 -43 -52 -129 -161 -192 -241 -63 -80 -202 -255 -310 -390
-107 -134 -246 -309 -309 -389 -137 -174 -426 -538 -896 -1126 -49 -61 -170
-213 -269 -338 -99 -125 -234 -296 -301 -379 -66 -84 -211 -266 -322 -405
l-202 -253 0 -663 c0 -656 0 -663 21 -681 19 -18 96 -19 2392 -20 1305 0 2378
-4 2385 -8 9 -6 12 -234 12 -1081 0 -1027 1 -1074 18 -1089 17 -16 96 -17 924
-17 864 0 906 1 921 18 16 17 17 107 17 1085 l0 1066 23 16 c20 14 64 15 405
10 l384 -6 51 53 c28 29 164 168 302 308 137 140 454 466 703 723 379 390 452
470 442 482 -11 13 -163 15 -1149 15 -871 0 -1140 3 -1149 12 -9 9 -12 646
-12 2803 0 2157 -3 2794 -12 2803 -9 9 -250 12 -1024 12 l-1012 0 -68 -87z
m236 -3857 c0 -1279 -3 -1665 -12 -1674 -17 -17 -2539 -17 -2556 0 -12 12 23
68 148 227 36 46 91 118 124 160 76 99 251 326 401 521 127 165 187 243 410
534 252 330 584 763 715 933 42 54 103 134 136 178 227 302 331 440 344 459
28 40 164 221 213 284 40 50 52 60 63 51 12 -10 14 -267 14 -1673z"/>
</g>
<!-- Purple chevron shape (#7357A5) -->
<g transform="translate(0,9400) scale(1,-1)" fill="#7357A5" stroke="none">
<path d="M7642 9358 c-9 -9 -12 -242 -12 -986 l0 -974 33 -32 c28 -27 242
-209 641 -546 56 -47 115 -97 133 -110 17 -14 130 -110 249 -215 120 -104 246
-212 279 -240 33 -27 283 -241 554 -475 272 -234 520 -446 551 -471 32 -25
100 -83 152 -130 52 -46 139 -120 193 -164 55 -44 122 -101 150 -126 27 -25
129 -113 225 -196 96 -83 195 -169 220 -191 l45 -41 -65 -63 c-36 -35 -223
-214 -415 -398 -193 -184 -413 -396 -490 -470 -161 -156 -917 -879 -1129
-1080 -78 -74 -304 -290 -501 -480 -197 -190 -463 -445 -591 -568 l-234 -223
0 -573 c0 -542 1 -574 18 -589 17 -15 70 -17 563 -17 l544 0 325 317 c179 174
503 487 720 696 217 209 591 569 830 800 862 832 994 959 1370 1324 96 94 248
239 336 324 210 200 664 639 875 846 l167 162 -47 43 c-25 24 -109 97 -185
163 -77 66 -180 156 -230 200 -50 44 -174 150 -276 235 -101 85 -209 178 -240
205 -31 28 -108 93 -171 147 -255 216 -408 346 -490 418 -47 41 -139 120 -204
175 -65 55 -204 174 -309 265 -105 91 -225 195 -267 230 -42 36 -184 157 -315
271 -499 429 -1132 968 -1283 1092 -35 28 -84 70 -110 93 -25 23 -134 117
-242 210 -108 93 -272 234 -364 314 -184 160 -514 440 -787 671 -97 81 -179
153 -183 159 -8 13 -18 13 -33 -2z"/>
</g>
</svg>
